<?xml version="1.0" encoding="utf-8"?>
<svg width="211px" height="46px" viewBox="0 0 211 46" version="1.1" xmlns="http://www.w3.org/2000/svg">
  <title>logo</title>
  <desc>Created with Sketch.</desc>
  <g id="Page-1" stroke="none" stroke-width="1" fill="none" fill-rule="evenodd">
    <g id="Artboard" transform="translate(-169.000000, -73.000000)" fill-rule="nonzero">
      <g id="logo" transform="translate(169.000000, 72.000000)">
        <path d="M 127.02 15.074 L 120.829 15.074 C 120.833 14.623 120.779 14.174 120.669 13.737 C 120.488 13.012 120.091 12.359 119.53 11.866 C 119.06 11.459 118.507 11.16 117.909 10.989 C 117.481 10.86 117.011 10.778 116.499 10.742 C 116.291 10.727 116.085 10.72 115.877 10.72 C 115.436 10.718 114.994 10.75 114.558 10.814 C 114.081 10.888 113.65 11.002 113.265 11.161 C 112.938 11.294 112.63 11.468 112.349 11.68 C 111.989 11.946 111.688 12.285 111.466 12.674 C 111.216 13.126 111.09 13.637 111.09 14.208 C 111.089 14.93 111.382 15.621 111.903 16.122 C 112.104 16.324 112.326 16.506 112.565 16.664 C 112.923 16.9 113.297 17.112 113.684 17.299 C 114.492 17.697 115.482 18.078 116.656 18.442 C 116.74 18.469 116.825 18.495 116.91 18.521 C 117.91 18.817 118.896 19.164 119.861 19.56 C 121.836 20.376 123.379 21.307 124.491 22.351 C 124.529 22.387 124.568 22.425 124.606 22.462 C 126.159 23.948 127.032 26.008 127.019 28.157 C 127.02 28.213 127.02 28.267 127.02 28.322 C 127.032 29.288 126.872 30.251 126.55 31.163 C 126.066 32.475 125.202 33.616 124.069 34.44 C 123.03 35.207 121.855 35.771 120.607 36.103 C 119.283 36.473 117.79 36.658 116.125 36.658 C 114.811 36.664 113.504 36.514 112.226 36.211 C 111.398 36.009 110.589 35.735 109.811 35.389 C 108.971 35.021 108.177 34.554 107.447 34 C 106.678 33.414 106.011 32.709 105.467 31.911 C 104.592 30.611 104.084 29.098 103.996 27.534 C 103.98 27.288 103.97 27.041 103.97 26.795 L 110.181 26.795 C 110.168 27.517 110.287 28.234 110.53 28.912 C 111.189 30.637 112.783 31.581 115.31 31.742 C 115.582 31.76 115.853 31.768 116.125 31.768 C 117.122 31.768 117.971 31.63 118.672 31.355 C 118.991 31.232 119.293 31.069 119.571 30.869 C 120.26 30.391 120.703 29.636 120.785 28.801 C 120.801 28.655 120.809 28.509 120.809 28.363 C 120.814 27.972 120.759 27.584 120.649 27.21 C 120.465 26.593 120.087 26.054 119.571 25.669 C 119.309 25.475 119.033 25.302 118.746 25.149 C 118.122 24.81 117.317 24.462 116.328 24.104 C 115.926 23.958 115.522 23.82 115.114 23.689 C 114.483 23.486 113.855 23.269 113.233 23.041 C 111.949 22.568 110.878 22.1 110.017 21.637 C 106.606 19.793 104.9 17.31 104.9 14.187 C 104.878 12.63 105.36 11.107 106.271 9.844 C 106.897 8.986 107.684 8.257 108.588 7.7 C 109.105 7.376 109.649 7.095 110.213 6.862 C 111.408 6.37 112.665 6.048 113.949 5.905 C 114.623 5.826 115.302 5.788 115.981 5.789 C 117.033 5.784 118.082 5.887 119.114 6.099 C 120.01 6.285 120.884 6.572 121.716 6.954 C 122.644 7.375 123.499 7.938 124.252 8.624 C 124.775 9.105 125.237 9.65 125.626 10.246 C 126.515 11.609 126.998 13.196 127.017 14.821 C 127.019 14.906 127.02 14.99 127.02 15.074 Z M 83.151 18.376 L 83.151 23.225 L 71.265 23.225 L 71.265 31.272 L 85.216 31.272 L 85.216 36.245 L 65.076 36.245 L 65.076 6.202 L 85.173 6.202 L 85.173 11.216 L 71.265 11.216 L 71.265 18.376 L 83.151 18.376 Z M 136.635 4.551 L 136.635 16.354 C 137.297 15.538 138.113 14.861 139.035 14.358 C 140.134 13.782 141.358 13.49 142.598 13.507 C 143.652 13.486 144.701 13.654 145.697 14.001 C 148.491 15.033 149.913 17.682 149.966 21.945 L 149.966 36.245 L 144.002 36.245 L 144.002 22.111 C 144.002 21.329 143.9 20.672 143.693 20.139 C 143.575 19.821 143.401 19.529 143.177 19.274 C 142.626 18.661 141.711 18.354 140.432 18.354 C 138.685 18.354 137.42 19.029 136.635 20.377 L 136.635 36.245 L 130.672 36.245 L 130.672 4.551 L 136.635 4.551 Z M 198.456 24.979 L 198.456 25.288 C 198.463 26.432 198.364 27.573 198.16 28.696 C 197.913 30.004 197.516 31.175 196.964 32.214 C 196.717 32.682 196.431 33.13 196.113 33.552 C 194.858 35.301 192.904 36.417 190.76 36.609 C 190.437 36.642 190.114 36.658 189.79 36.658 C 188.898 36.668 188.01 36.526 187.165 36.239 C 186.066 35.852 185.086 35.185 184.321 34.305 L 184.321 44.829 L 178.358 44.829 L 178.358 13.919 L 183.888 13.919 L 184.094 16.106 C 185.538 14.373 187.423 13.507 189.749 13.507 C 192.499 13.507 194.639 14.524 196.165 16.56 C 197.413 18.223 198.151 20.403 198.379 23.096 C 198.431 23.723 198.457 24.351 198.456 24.979 Z M 184.321 20.502 L 184.321 29.642 C 184.82 30.715 185.801 31.488 186.962 31.72 C 187.375 31.81 187.798 31.854 188.22 31.85 C 189.674 31.914 191.019 31.085 191.615 29.758 C 192.139 28.722 192.429 27.302 192.483 25.498 C 192.489 25.283 192.492 25.069 192.492 24.856 C 192.495 24.251 192.459 23.646 192.384 23.046 C 192.307 22.444 192.187 21.896 192.025 21.403 C 191.873 20.925 191.659 20.47 191.389 20.047 C 191.074 19.547 190.644 19.13 190.134 18.833 C 189.577 18.515 188.925 18.354 188.18 18.354 C 187.682 18.349 187.186 18.41 186.704 18.534 C 185.654 18.796 184.778 19.519 184.321 20.502 Z M 153.534 25.144 L 153.534 24.875 C 153.534 22.661 153.961 20.687 154.814 18.953 C 155.615 17.276 156.897 15.875 158.498 14.93 C 159.708 14.221 161.053 13.771 162.446 13.607 C 162.988 13.54 163.533 13.506 164.079 13.507 C 165.227 13.496 166.371 13.65 167.476 13.963 C 168.973 14.393 170.34 15.186 171.455 16.271 C 172.785 17.571 173.73 19.21 174.19 21.01 C 174.432 21.917 174.584 22.845 174.644 23.782 L 174.685 25.309 C 174.694 26.509 174.559 27.706 174.282 28.874 C 173.875 30.619 173.026 32.23 171.817 33.552 C 169.904 35.623 167.339 36.658 164.12 36.658 C 162.956 36.669 161.797 36.512 160.678 36.194 C 159.042 35.724 157.567 34.813 156.413 33.563 C 155.205 32.244 154.358 30.635 153.957 28.893 C 153.693 27.823 153.553 26.658 153.536 25.397 C 153.535 25.313 153.534 25.228 153.534 25.144 Z M 159.498 25.309 C 159.495 25.917 159.533 26.525 159.612 27.128 C 159.694 27.734 159.822 28.284 159.994 28.779 C 160.16 29.274 160.396 29.741 160.695 30.168 C 161.34 31.106 162.365 31.709 163.498 31.815 C 163.705 31.839 163.912 31.85 164.12 31.85 C 164.648 31.857 165.17 31.771 165.668 31.596 C 166.408 31.325 167.049 30.834 167.504 30.19 C 167.804 29.767 168.038 29.303 168.197 28.812 C 168.5 27.925 168.67 26.827 168.711 25.515 C 168.718 25.301 168.721 25.089 168.721 24.875 C 168.721 23.49 168.54 22.312 168.181 21.343 C 168.012 20.884 167.785 20.448 167.504 20.047 C 166.86 19.1 165.829 18.485 164.689 18.37 C 164.485 18.346 164.283 18.335 164.079 18.335 C 163.554 18.329 163.031 18.414 162.536 18.589 C 161.786 18.868 161.142 19.374 160.695 20.037 C 160.395 20.476 160.16 20.957 160.001 21.465 C 159.699 22.383 159.533 23.512 159.503 24.856 C 159.5 25.006 159.498 25.157 159.498 25.309 Z M 100.05 20.976 L 100.05 25.784 L 88.434 25.784 L 88.434 20.976 L 100.05 20.976 Z" id="Alistyle-Copy" fill="#FF5500" style=""/>
        <g id="Group-6" transform="translate(0.000000, 0.662951)">
          <path d="M38.1568542,2.99390335 L53.0060967,17.8431458 C56.130291,20.9673401 56.130291,26.0326599 53.0060967,29.1568542 L38.1568542,44.0060967 C35.0326599,47.130291 29.9673401,47.130291 26.8431458,44.0060967 L11.9939033,29.1568542 C8.86970901,26.0326599 8.86970901,20.9673401 11.9939033,17.8431458 L26.8431458,2.99390335 C29.9673401,-0.130290988 35.0326599,-0.130290988 38.1568542,2.99390335 Z" id="Rectangle-Copy-5" fill="#FFCFB7"/>
          <path d="M29.1568542,2.99390335 L44.0060967,17.8431458 C47.130291,20.9673401 47.130291,26.0326599 44.0060967,29.1568542 L29.1568542,44.0060967 C26.0326599,47.130291 20.9673401,47.130291 17.8431458,44.0060967 L2.99390335,29.1568542 C-0.130290988,26.0326599 -0.130290988,20.9673401 2.99390335,17.8431458 L17.8431458,2.99390335 C20.9673401,-0.130290988 26.0326599,-0.130290988 29.1568542,2.99390335 Z" id="Rectangle-Copy-6" fill="#FF5500"/>
          <path d="M21,31.337049 L21,28.081235 L15.984984,23.837049 L21,19.592863 L21,16.337049 L14,22.6161188 L14,25.041368 L21,31.337049 Z M27,31.337049 L34,25.041368 L34,22.6161188 L27,16.337049 L27,19.4931952 L31.9931442,23.837049 L27,28.1476803 L27,31.337049 Z" id="&lt;/&gt;-copy" fill="#FFFFFF"/>
        </g>
      </g>
    </g>
  </g>
</svg>